<?xml version="1.0" encoding="utf-8"?>
<!-- Generator: Adobe Illustrator 30.0.0, SVG Export Plug-In . SVG Version: 9.03 Build 0)  -->
<svg version="1.0" id="Logo_Text_Not_Outlined" xmlns="http://www.w3.org/2000/svg" xmlns:xlink="http://www.w3.org/1999/xlink"
	 x="0px" y="0px" viewBox="0 0 399.6 82.8" style="enable-background:new 0 0 399.6 82.8;display:none;" xml:space="preserve">
<style type="text/css">
	.st0{fill:#A7A9AC;}
	.st1{fill:#FAA41A;}
	.st2{fill:none;stroke:#A7A9AC;stroke-width:1.15;stroke-miterlimit:10;}
	.st3{fill:#FFFFFF;}
	.st4{fill:none;stroke:#FFFFFF;stroke-width:1.15;stroke-miterlimit:10;}
</style>
<g style="display:inline;">
	<path class="st3" d="M359.53,7.59c-0.21,0.21-0.55,0.36-0.92,0.45c-1.02,0.23-1.72-0.13-1.96-1.15l-0.3-1.33l-0.58,0.13l-0.24-1.04
		l0.58-0.13l-0.23-1.03l1.39-0.32l0.23,1.03L358.42,4l0.24,1.04l-0.91,0.21l0.3,1.32c0.07,0.29,0.27,0.42,0.52,0.36
		c0.15-0.04,0.3-0.11,0.4-0.22L359.53,7.59z"/>
	<path class="st3" d="M364.86,5.01l0.12,2.32l-1.43,0.07l-0.11-2.09c-0.03-0.58-0.3-0.82-0.71-0.8c-0.46,0.02-0.8,0.33-0.76,1
		l0.1,1.96l-1.43,0.07l-0.28-5.56l1.43-0.07l0.09,1.87c0.3-0.31,0.72-0.48,1.2-0.5C364.04,3.24,364.79,3.75,364.86,5.01z"/>
	<path class="st3" d="M372.93,7.7l-2.15-0.59l-0.67,0.88l-1.46-0.4l3.63-4.45l1.41,0.39l0.86,5.68l-1.49-0.41L372.93,7.7z
		 M372.8,6.53l-0.21-1.8l-1.1,1.44L372.8,6.53z"/>
	<path class="st3" d="M382.27,7.39L379.76,12l-1.07-0.59l-0.7-3.57l-1.34,2.46l-1.28-0.7l2.51-4.61l1.07,0.59l0.7,3.57L381,6.69
		L382.27,7.39z"/>
	<path class="st3" d="M388.26,12.32l-3.51,3.91l-0.91-0.82l0.15-3.63l-1.87,2.08l-1.08-0.97l3.51-3.91l0.91,0.82l-0.15,3.63
		l1.87-2.08L388.26,12.32z"/>
	<path class="st3" d="M389.86,14.26l0.92,1.17l-4.13,3.25l-0.92-1.17L389.86,14.26z"/>
	<path class="st3" d="M394.81,22.14l-5.69,0.52l-0.7-1.29l3.54-4.47l0.77,1.41l-2.32,2.88l3.7-0.35L394.81,22.14z"/>
	<path class="st3" d="M392.71,29.15l-1.1,0.33l-1.2-4.05l5.03-1.5l1.17,3.95l-1.1,0.33l-0.75-2.54l-0.85,0.25l0.66,2.24l-1.06,0.32
		l-0.66-2.24l-0.92,0.27L392.71,29.15z"/>
	<path class="st3" d="M393.43,33l-0.06-0.81l-1.39,0.11l-0.11-1.48l5.23-0.41l0.19,2.4c0.11,1.43-0.56,2.39-1.76,2.48
		c-0.77,0.06-1.37-0.27-1.73-0.9l-1.56,1.26l-0.12-1.59L393.43,33z M396.1,32.81l-0.06-0.82l-1.53,0.12l0.06,0.82
		c0.05,0.61,0.36,0.9,0.83,0.86C395.89,33.75,396.15,33.43,396.1,32.81z"/>
	<path class="st3" d="M392.65,36.56l1.03,0.62c-0.36,0.42-0.65,1.06-0.73,1.66c-0.08,0.61,0.07,0.87,0.32,0.9
		c0.83,0.1,0.59-2.94,2.53-2.7c0.93,0.12,1.6,0.97,1.4,2.52c-0.08,0.68-0.33,1.36-0.69,1.84l-1.04-0.59
		c0.33-0.47,0.53-0.94,0.58-1.4c0.08-0.62-0.1-0.87-0.36-0.9c-0.8-0.1-0.57,2.94-2.49,2.7c-0.91-0.11-1.59-0.97-1.39-2.52
		C391.91,37.83,392.25,37.01,392.65,36.56z"/>
	<path class="st3" d="M391.16,45.84l0.74-2.1l-0.83-0.73l0.5-1.43l4.19,3.93l-0.49,1.38l-5.73,0.46l0.51-1.46L391.16,45.84z
		 M392.33,45.79l1.81-0.08l-1.36-1.2L392.33,45.79z"/>
	<path class="st3" d="M389.02,50.83l0.43-0.69l-1.18-0.74l0.79-1.26l4.44,2.8l-1.28,2.04c-0.76,1.21-1.87,1.58-2.89,0.94
		c-0.65-0.41-0.94-1.03-0.86-1.76l-2,0.08l0.85-1.35L389.02,50.83z M391.28,52.27l0.44-0.7l-1.3-0.82l-0.44,0.7
		c-0.33,0.52-0.25,0.93,0.16,1.19C390.55,52.9,390.95,52.8,391.28,52.27z"/>
	<path class="st3" d="M385.11,56.46l-1.35-1.31l1.04-1.07l1.37,1.33l3.8,0.88l-1.09,1.13l-2.37-0.55l0.63,2.35l-1,1.04L385.11,56.46
		z"/>
</g>
<path style="display:inline;fill:#FFFFFF;" d="M76.68,79.63c-0.05,0-0.1,0-0.15-0.02c-0.39-0.08-0.64-0.47-0.56-0.86l15.7-73.71
	c0.08-0.39,0.47-0.65,0.86-0.56c0.39,0.08,0.64,0.47,0.56,0.86L77.4,79.06C77.32,79.4,77.02,79.63,76.68,79.63z"/>
<path style="display:inline;fill:#FFFFFF;" d="M110.13,23.34c-1.77-0.02-2.22-0.02-4.06,0.06L106,23.3c0-1.68,0.02-3.34,0.04-5
	c0.02-1.06,0.04-2.13,0.04-3.19c0-1.64-0.04-2.85-0.11-4.85l0.09-0.09c1.83,0.02,2.22,0.02,4.05-0.06l0.07,0.09
	c-0.06,1.86-0.09,2.98-0.09,5.13c0,2.63,0.06,5.3,0.13,7.91L110.13,23.34z"/>
<path style="display:inline;fill:#FFFFFF;" d="M116.99,17.89v2.57c1.45,0,2.82-0.04,4.74-0.11l0.11,0.11l-0.19,2.76l-0.17,0.11
	c-2.55,0-2.98-0.02-3.54-0.02c-2.05,0-3.11,0.04-4.89,0.07l-0.09-0.13c0.06-2.14,0.07-3.3,0.07-5.84c0-4.47-0.04-5.24-0.13-7.14
	l0.11-0.11h8.39l0.09,0.08l-0.13,2.57l-0.11,0.09h-4.31v2.37l4.08-0.07l0.11,0.13L121,17.78l-0.13,0.11H116.99z"/>
<path style="display:inline;fill:#FFFFFF;" d="M127.86,17.89v2.57c1.45,0,2.82-0.04,4.74-0.11l0.11,0.11l-0.19,2.76l-0.17,0.11
	c-2.55,0-2.98-0.02-3.54-0.02c-2.05,0-3.11,0.04-4.89,0.07l-0.09-0.13c0.06-2.14,0.07-3.3,0.07-5.84c0-4.47-0.04-5.24-0.13-7.14
	l0.11-0.11h8.39l0.09,0.08l-0.13,2.57l-0.11,0.09h-4.31v2.37l4.08-0.07l0.11,0.13l-0.15,2.44l-0.13,0.11H127.86z"/>
<path style="display:inline;fill:#FFFFFF;" d="M138.72,17.89v2.57c1.45,0,2.82-0.04,4.74-0.11l0.11,0.11l-0.19,2.76l-0.17,0.11
	c-2.55,0-2.98-0.02-3.54-0.02c-2.05,0-3.11,0.04-4.89,0.07l-0.09-0.13c0.06-2.14,0.07-3.3,0.07-5.84c0-4.47-0.04-5.24-0.13-7.14
	l0.11-0.11h8.39l0.09,0.08l-0.13,2.57l-0.11,0.09h-4.31v2.37l4.08-0.07l0.11,0.13l-0.15,2.44l-0.13,0.11H138.72z"/>
<path style="display:inline;fill:#FFFFFF;" d="M110.74,34.02c-0.83-0.42-1.66-0.63-2.5-0.63c-1.01,0-1.93,0.25-2.77,0.74
	s-1.49,1.17-1.97,2.02c-0.48,0.85-0.72,1.8-0.72,2.84c0,1.04,0.24,2,0.72,2.86c0.48,0.86,1.14,1.55,1.97,2.05
	c0.84,0.5,1.76,0.76,2.77,0.76c0.8,0,1.62-0.19,2.45-0.58s1.57-0.9,2.22-1.55l2.38,2.59c-0.96,0.99-2.08,1.78-3.37,2.36
	c-1.29,0.58-2.58,0.87-3.88,0.87c-1.76,0-3.36-0.41-4.79-1.22c-1.44-0.81-2.56-1.93-3.38-3.34c-0.82-1.42-1.23-3-1.23-4.74
	c0-1.73,0.42-3.29,1.26-4.69c0.84-1.4,1.99-2.5,3.45-3.31s3.08-1.2,4.86-1.2c1.3,0,2.58,0.27,3.84,0.81
	c1.26,0.54,2.34,1.27,3.23,2.19l-2.36,2.9C112.29,35.01,111.57,34.43,110.74,34.02z"/>
<path style="display:inline;fill:#FFFFFF;" d="M130.87,31.06c1.47,0.8,2.63,1.91,3.47,3.32c0.85,1.41,1.27,2.98,1.27,4.7
	c0,1.73-0.42,3.3-1.27,4.72c-0.85,1.42-2,2.53-3.47,3.34c-1.47,0.81-3.1,1.22-4.89,1.22c-1.79,0-3.43-0.41-4.89-1.22
	c-1.47-0.81-2.63-1.92-3.47-3.33c-0.85-1.41-1.27-2.99-1.27-4.73c0-1.73,0.42-3.29,1.27-4.7c0.85-1.41,2-2.52,3.46-3.32
	c1.46-0.8,3.1-1.2,4.91-1.2C127.77,29.85,129.4,30.25,130.87,31.06z M123.26,34.14c-0.85,0.5-1.53,1.19-2.02,2.06
	c-0.5,0.87-0.74,1.83-0.74,2.87c0,1.06,0.25,2.02,0.76,2.9c0.5,0.87,1.18,1.56,2.02,2.08c0.85,0.51,1.76,0.77,2.76,0.77
	c0.99,0,1.9-0.25,2.73-0.76c0.83-0.5,1.49-1.2,1.97-2.08c0.49-0.88,0.73-1.85,0.73-2.91c0-1.04-0.24-2-0.73-2.87
	c-0.49-0.87-1.14-1.56-1.97-2.06c-0.83-0.5-1.74-0.76-2.73-0.76C125.04,33.39,124.12,33.64,123.26,34.14z"/>
<path style="display:inline;fill:#FFFFFF;" d="M138.53,30.13h4.51l5.59,11.02l5.54-11.02h4.49v17.94h-3.64V35.95l-5.1,10.3h-2.61
	l-5.13-10.3v12.12h-3.64V30.13z"/>
<path style="display:inline;fill:#FFFFFF;" d="M175.8,31.76c1.25,1.09,1.87,2.62,1.87,4.6c0,2.08-0.63,3.7-1.88,4.86
	c-1.26,1.15-3.02,1.73-5.29,1.73h-3.56v5.13h-4.05V30.13h7.61C172.78,30.13,174.55,30.68,175.8,31.76z M172.91,38.78
	c0.61-0.52,0.91-1.29,0.91-2.29c0-0.99-0.3-1.74-0.91-2.24c-0.61-0.5-1.48-0.76-2.63-0.76h-3.36v6.07h3.36
	C171.43,39.56,172.31,39.3,172.91,38.78z"/>
<path style="display:inline;fill:#FFFFFF;" d="M185.34,43.7c0.73,0.74,1.7,1.11,2.91,1.11c1.18,0,2.12-0.37,2.82-1.1
	c0.7-0.73,1.05-1.75,1.05-3.05V30.13h4.05v10.53c0,1.57-0.32,2.93-0.96,4.09c-0.64,1.15-1.56,2.04-2.76,2.66
	c-1.2,0.62-2.61,0.94-4.23,0.94c-1.62,0-3.04-0.31-4.25-0.94c-1.21-0.62-2.14-1.51-2.79-2.66c-0.65-1.15-0.97-2.52-0.97-4.09V30.13
	h4.05v10.53C184.25,41.95,184.62,42.96,185.34,43.7z"/>
<path style="display:inline;fill:#FFFFFF;" d="M198.3,30.13h14.99v3.43h-5.48v14.5h-4.05v-14.5h-5.46V30.13z"/>
<path style="display:inline;fill:#FFFFFF;" d="M215.72,30.13h13.66v3.36h-9.61v3.9h8.64v3.36h-8.64v3.97h9.89v3.36h-13.94V30.13z"/>
<path style="display:inline;fill:#FFFFFF;" d="M244.12,48.07l-2.85-5.13h-0.38h-3.74v5.13h-4.05V30.13h7.79
	c2.34,0,4.15,0.54,5.43,1.63c1.28,1.09,1.92,2.62,1.92,4.6c0,1.38-0.29,2.57-0.86,3.55c-0.57,0.98-1.41,1.73-2.5,2.24l3.82,5.92
	H244.12z M237.14,39.56h3.74c1.13,0,1.99-0.26,2.6-0.78c0.61-0.52,0.91-1.29,0.91-2.29c0-0.99-0.3-1.74-0.91-2.24
	c-0.61-0.5-1.47-0.76-2.6-0.76h-3.74V39.56z"/>
<path style="display:inline;fill:#FFFFFF;" d="M102.54,59.41c-1.03-0.33-1.92-0.5-2.65-0.5c-0.7,0-1.26,0.13-1.67,0.38
	c-0.41,0.26-0.61,0.63-0.61,1.13c0,0.63,0.29,1.11,0.88,1.45c0.59,0.33,1.5,0.68,2.73,1.04c1.23,0.36,2.24,0.72,3.04,1.08
	c0.79,0.36,1.47,0.9,2.04,1.61c0.56,0.72,0.85,1.67,0.85,2.84c0,1.14-0.3,2.13-0.91,2.96c-0.61,0.83-1.44,1.46-2.5,1.88
	c-1.06,0.43-2.26,0.64-3.61,0.64c-1.45,0-2.88-0.26-4.28-0.77c-1.4-0.51-2.61-1.21-3.64-2.1l1.61-3.31c0.9,0.82,1.95,1.48,3.13,1.97
	c1.18,0.5,2.26,0.74,3.23,0.74c0.84,0,1.49-0.15,1.96-0.46c0.47-0.31,0.7-0.75,0.7-1.33c0-0.46-0.16-0.84-0.47-1.14
	c-0.32-0.3-0.72-0.54-1.2-0.73c-0.49-0.19-1.16-0.4-2.01-0.64c-1.23-0.34-2.23-0.68-3.01-1.03c-0.78-0.34-1.45-0.86-2.01-1.56
	c-0.56-0.7-0.85-1.63-0.85-2.79c0-1.08,0.29-2.02,0.87-2.83c0.58-0.81,1.39-1.43,2.43-1.87c1.04-0.44,2.26-0.65,3.64-0.65
	c1.23,0,2.44,0.18,3.64,0.54c1.2,0.36,2.26,0.84,3.18,1.44l-1.56,3.36C104.55,60.19,103.58,59.74,102.54,59.41z"/>
<path style="display:inline;fill:#FFFFFF;" d="M123.49,56.68c1.47,0.8,2.63,1.91,3.47,3.32c0.85,1.41,1.27,2.98,1.27,4.7
	c0,1.73-0.42,3.3-1.27,4.72c-0.85,1.42-2,2.53-3.47,3.34c-1.47,0.81-3.1,1.22-4.89,1.22c-1.79,0-3.43-0.41-4.89-1.22
	c-1.47-0.81-2.63-1.92-3.47-3.33c-0.85-1.41-1.27-2.99-1.27-4.73c0-1.72,0.42-3.29,1.27-4.7c0.85-1.41,2-2.52,3.46-3.32
	c1.46-0.8,3.1-1.2,4.91-1.2C120.39,55.48,122.02,55.88,123.49,56.68z M115.88,59.77c-0.85,0.5-1.53,1.19-2.02,2.06
	c-0.5,0.87-0.74,1.83-0.74,2.87c0,1.06,0.25,2.02,0.76,2.9c0.5,0.87,1.18,1.56,2.02,2.08c0.85,0.51,1.76,0.77,2.76,0.77
	c0.99,0,1.9-0.25,2.73-0.76s1.49-1.2,1.97-2.08c0.49-0.88,0.73-1.85,0.73-2.91c0-1.04-0.24-2-0.73-2.87
	c-0.49-0.87-1.14-1.56-1.97-2.06c-0.83-0.5-1.74-0.76-2.73-0.76C117.66,59.01,116.73,59.27,115.88,59.77z"/>
<path style="display:inline;fill:#FFFFFF;" d="M141.52,59.64c-0.83-0.42-1.66-0.63-2.5-0.63c-1.01,0-1.93,0.25-2.77,0.74
	c-0.84,0.49-1.49,1.17-1.97,2.02s-0.72,1.8-0.72,2.84s0.24,2,0.72,2.86c0.48,0.86,1.14,1.55,1.97,2.05c0.84,0.5,1.76,0.76,2.77,0.76
	c0.8,0,1.62-0.19,2.45-0.58c0.83-0.38,1.57-0.9,2.22-1.55l2.38,2.59c-0.96,0.99-2.08,1.78-3.37,2.36c-1.29,0.58-2.58,0.87-3.88,0.87
	c-1.76,0-3.36-0.41-4.79-1.22c-1.44-0.81-2.56-1.93-3.38-3.34c-0.82-1.42-1.23-3-1.23-4.74c0-1.73,0.42-3.29,1.26-4.69
	c0.84-1.4,1.99-2.5,3.45-3.31c1.46-0.8,3.08-1.2,4.86-1.2c1.3,0,2.58,0.27,3.84,0.81c1.26,0.54,2.34,1.27,3.23,2.19l-2.36,2.9
	C143.07,60.64,142.35,60.06,141.52,59.64z"/>
<path style="display:inline;fill:#FFFFFF;" d="M148.73,55.76h4.05V73.7h-4.05V55.76z"/>
<path style="display:inline;fill:#FFFFFF;" d="M157.01,55.76h13.66v3.36h-9.61v3.9h8.64v3.36h-8.64v3.97h9.89v3.36h-13.94V55.76z"/>
<path style="display:inline;fill:#FFFFFF;" d="M172.62,55.76h14.99v3.43h-5.48v14.5h-4.05v-14.5h-5.46V55.76z"/>
<path style="display:inline;fill:#FFFFFF;" d="M205.21,55.76l-6.54,12.15v5.79h-4.05v-5.69l-6.64-12.25h4.07l4.59,8.05l4.48-8.05
	H205.21z"/>
<g style="display:inline;">
	<g>
		<path class="st3" d="M38.19,8.74c-19.42,0-35.17,14.4-35.17,32.16c0,17.76,15.74,32.16,35.17,32.16s35.17-14.4,35.17-32.16
			C73.36,23.14,57.61,8.74,38.19,8.74z M43.56,56.37c0.01,4.22,0.3,4.36,3.24,4.56l3.03,0.18l0.13,0.07
			c0.65,0.35,0.86,1.18,0.77,1.85c-0.09,0.72-0.5,1.25-1.07,1.39l-0.09,0.02l-0.1,0c-2.38-0.11-6.54-0.17-11.11-0.17
			c-4.82,0-8.97,0.06-11.39,0.17l-0.1,0l-0.09-0.02c-0.57-0.14-0.98-0.67-1.07-1.39c-0.09-0.67,0.12-1.5,0.77-1.85l0.13-0.07
			l3.04-0.18c2.94-0.19,3.23-0.34,3.24-4.57c-11.58-1.3-18.8-6.91-18.8-15.02c0-8.17,6.22-13.4,17.3-14.88
			c0.04,1.06,0.07,2.47,0.09,4.1c-0.68,0.17-1.32,0.36-1.9,0.59l-0.29,0.11c-2.31,0.86-3.88,2.48-4.58,4.69l-0.03,0.07
			c-0.4,0.97-0.62,2.79-0.62,5.13l0,0.1l0,0.1c0,2.35,0.22,4.17,0.62,5.13l0.03,0.09c0.53,1.7,1.61,3.05,3.12,3.97
			c2.18,1.45,6.34,2.2,10.48,2.2c4.52,0,9.08-0.9,11.04-2.63c1.19-0.9,2.04-2.09,2.5-3.55l0.03-0.08c0.4-0.96,0.62-2.79,0.62-5.13
			l0-0.09l0-0.1c0-2.35-0.22-4.17-0.62-5.13l-0.03-0.07c-0.69-2.21-2.27-3.82-4.55-4.68l-0.3-0.11c-1.01-0.4-2.19-0.71-3.47-0.94
			V50.8c-1.49,0.28-3.24,0.45-5.22,0.45c-2.08,0-3.91-0.19-5.44-0.49v-4.77c0.09-4.44,0.19-11.48,0.08-16.46l0,0
			c0-0.12-0.08-3.49-0.08-3.6c-0.02-3.26-0.33-3.61-2.78-3.87l-3.45-0.4c-0.52-0.23-0.87-0.83-0.92-1.55
			c-0.04-0.72,0.23-1.35,0.7-1.64l0.13-0.08l0.15-0.02c2.52-0.3,5.7-0.86,8.96-1.58c1.71-0.41,3.31-0.93,4.47-1.31
			c1.16-0.38,1.64-0.53,1.95-0.53c0.64,0,1.4,0.34,1.63,1.1l0.04,0.13l-0.02,0.14c-0.13,1.2-0.21,3.71-0.21,6.7v3.24
			c12.07,1.17,18.87,6.52,18.87,15.07C62.44,49.47,55.19,55.08,43.56,56.37z"/>
	</g>
</g>
<path style="display:inline;fill:#FFFFFF;" d="M58.61,71.09h3.48v0.67h-1.36v3.84h-0.76v-3.84h-1.35V71.09z M62.75,71.09h0.89
	l1.48,3.05l1.47-3.05h0.9v4.51h-0.7v-3.43l-1.43,2.96h-0.49l-1.43-2.96v3.43h-0.7V71.09z"/>
<line style="display:inline;fill:none;stroke:#FFFFFF;stroke-width:1.15;stroke-miterlimit:10;" x1="284.1" y1="18.12" x2="284.1" y2="62.77"/>
<g style="display:inline;">
	<path class="st3" d="M316.03,72.29c0-2.29,1.75-3.92,4.14-3.92c1.39,0,2.51,0.51,3.24,1.42l-1.36,1.23
		c-0.47-0.57-1.05-0.88-1.77-0.88c-1.24,0-2.1,0.86-2.1,2.15c0,1.29,0.86,2.15,2.1,2.15c0.72,0,1.3-0.31,1.77-0.88l1.36,1.23
		c-0.73,0.91-1.85,1.42-3.24,1.42C317.79,76.2,316.03,74.58,316.03,72.29z"/>
	<path class="st3" d="M330.51,74.4v1.65h-6.05v-7.53h5.91v1.65h-3.8v1.27h3.35v1.59h-3.35v1.38H330.51z"/>
	<path class="st3" d="M331.8,68.52h2.13v5.84h3.59v1.69h-5.72V68.52z"/>
	<path class="st3" d="M344.52,74.4v1.65h-6.05v-7.53h5.91v1.65h-3.8v1.27h3.35v1.59h-3.35v1.38H344.52z"/>
	<path class="st3" d="M352.98,73.98c0,1.3-1.08,2.07-3.1,2.07h-4.07v-7.53h3.85c1.98,0,2.95,0.81,2.95,1.97
		c0,0.72-0.37,1.3-1.01,1.63C352.45,72.43,352.98,73.07,352.98,73.98z M347.92,70.06v1.45h1.46c0.71,0,1.08-0.25,1.08-0.73
		c0-0.47-0.37-0.72-1.08-0.72H347.92z M350.82,73.75c0-0.52-0.39-0.76-1.12-0.76h-1.79v1.53h1.79
		C350.44,74.51,350.82,74.26,350.82,73.75z"/>
	<path class="st3" d="M357.48,74.05h-1.16v2h-2.13v-7.53h3.44c2.05,0,3.35,1.07,3.35,2.79c0,1.11-0.54,1.93-1.47,2.38l1.62,2.37
		h-2.28L357.48,74.05z M357.51,70.2h-1.18v2.21h1.18c0.88,0,1.32-0.41,1.32-1.1C358.83,70.61,358.39,70.2,357.51,70.2z"/>
	<path class="st3" d="M367.31,74.59h-3.18l-0.59,1.46h-2.17l3.32-7.53h2.1l3.33,7.53h-2.22L367.31,74.59z M366.68,73.02l-0.97-2.41
		l-0.97,2.41H366.68z"/>
	<path class="st3" d="M372.05,70.21h-2.31v-1.69h6.75v1.69h-2.3v5.84h-2.13V70.21z"/>
	<path class="st3" d="M377.39,68.52h2.13v7.53h-2.13V68.52z"/>
	<path class="st3" d="M380.76,72.29c0-2.26,1.77-3.92,4.18-3.92c2.41,0,4.18,1.66,4.18,3.92c0,2.26-1.78,3.92-4.18,3.92
		C382.53,76.2,380.76,74.54,380.76,72.29z M386.97,72.29c0-1.3-0.89-2.15-2.03-2.15c-1.14,0-2.03,0.85-2.03,2.15
		c0,1.3,0.89,2.15,2.03,2.15C386.08,74.44,386.97,73.59,386.97,72.29z"/>
	<path class="st3" d="M397.52,68.52v7.53h-1.75l-3.32-4.01v4.01h-2.09v-7.53h1.75l3.32,4.01v-4.01H397.52z"/>
</g>
<g style="display:inline;">
	<path class="st3" d="M364.49,9.42c-5.91,0-11.35,2-15.69,5.35c1.48,2.49,2.34,5.38,2.34,8.48c0,0.3-0.01,0.59-0.03,0.88
		c3.17-3.86,7.99-6.33,13.37-6.33c9.55,0,17.3,7.75,17.3,17.3c0,9.55-7.75,17.3-17.3,17.3c-4.29,0-8.21-1.57-11.23-4.16
		c-0.56,2.92-1.78,5.6-3.5,7.89c4.17,2.93,9.25,4.65,14.74,4.65c14.19,0,25.69-11.5,25.69-25.69S378.68,9.42,364.49,9.42z"/>
	<path class="st3" d="M345.17,32.22c2.03-2.42,3.26-5.55,3.26-8.96c0-7.68-6.23-13.93-13.89-13.93c-7.66,0-13.89,6.25-13.89,13.93
		c0,3.41,1.23,6.54,3.26,8.96c-3.5,3.01-5.72,7.48-5.72,12.45c0,9.05,7.33,16.4,16.35,16.4c9.02,0,16.35-7.36,16.35-16.4
		C350.89,39.7,348.67,35.23,345.17,32.22z M329.57,23.26c0-2.76,2.23-5.01,4.97-5.01c2.74,0,4.97,2.25,4.97,5.01
		c0,2.76-2.23,5.01-4.97,5.01C331.8,28.27,329.57,26.02,329.57,23.26z M334.54,52.15c-4.1,0-7.43-3.36-7.43-7.48
		s3.33-7.48,7.43-7.48c4.1,0,7.43,3.36,7.43,7.48S338.63,52.15,334.54,52.15z"/>
	<g>
		<g>
			<g>
				<g>
					<path class="st3" d="M364.59,23.73c-6.91,0-12.5,5.12-12.5,11.44c0,6.32,5.6,11.44,12.5,11.44c6.91,0,12.5-5.12,12.5-11.44
						C377.09,28.85,371.49,23.73,364.59,23.73z M366.5,40.67c0,1.5,0.11,1.55,1.15,1.62l1.08,0.06l0.05,0.02
						c0.23,0.13,0.3,0.42,0.27,0.66c-0.03,0.26-0.18,0.45-0.38,0.49l-0.03,0.01l-0.03,0c-0.85-0.04-2.32-0.06-3.95-0.06
						c-1.71,0-3.19,0.02-4.05,0.06l-0.03,0l-0.03-0.01c-0.2-0.05-0.35-0.24-0.38-0.49c-0.03-0.24,0.04-0.53,0.27-0.66l0.05-0.02
						l1.08-0.06c1.05-0.07,1.15-0.12,1.15-1.62c-4.12-0.46-6.68-2.46-6.68-5.34c0-2.91,2.21-4.77,6.15-5.29
						c0.01,0.38,0.03,0.88,0.03,1.46c-0.24,0.06-0.47,0.13-0.68,0.21l-0.1,0.04c-0.82,0.31-1.38,0.88-1.63,1.67l-0.01,0.03
						c-0.14,0.34-0.22,0.99-0.22,1.83l0,0.03l0,0.03c0,0.83,0.08,1.48,0.22,1.83l0.01,0.03c0.19,0.6,0.57,1.08,1.11,1.41
						c0.78,0.52,2.26,0.78,3.73,0.78c1.61,0,3.23-0.32,3.92-0.93c0.42-0.32,0.73-0.74,0.89-1.26l0.01-0.03
						c0.14-0.34,0.22-0.99,0.22-1.83l0-0.03l0-0.04c0-0.83-0.08-1.48-0.22-1.83l-0.01-0.03c-0.25-0.78-0.81-1.36-1.62-1.66
						l-0.11-0.04c-0.36-0.14-0.78-0.25-1.23-0.34v7.32c-0.53,0.1-1.15,0.16-1.86,0.16c-0.74,0-1.39-0.07-1.93-0.17v-1.69
						c0.03-1.58,0.07-4.08,0.03-5.85l0,0c0-0.04-0.03-1.24-0.03-1.28c-0.01-1.16-0.12-1.28-0.99-1.38l-1.22-0.14
						c-0.19-0.08-0.31-0.29-0.33-0.55c-0.02-0.26,0.08-0.48,0.25-0.58l0.04-0.03l0.05-0.01c0.9-0.11,2.03-0.31,3.18-0.56
						c0.61-0.15,1.18-0.33,1.59-0.46c0.41-0.13,0.58-0.19,0.69-0.19c0.23,0,0.5,0.12,0.58,0.39l0.01,0.05l-0.01,0.05
						c-0.05,0.43-0.07,1.32-0.07,2.38v1.15c4.29,0.42,6.71,2.32,6.71,5.36C373.21,38.21,370.63,40.21,366.5,40.67z"/>
				</g>
			</g>
		</g>
		<g>
			<path class="st3" d="M371.85,45.9h1.24v0.24h-0.48v1.37h-0.27v-1.37h-0.48V45.9z M373.32,45.9h0.32l0.53,1.08l0.52-1.08H375v1.6
				h-0.25v-1.22l-0.51,1.05h-0.18l-0.51-1.05v1.22h-0.25V45.9z"/>
		</g>
	</g>
</g>
</svg>
